# xmcd
#
# Track frame offsets:
#	150
#	15777
#	31909
#	46821
#	59946
#	75578
#	88205
#	103262
#	119289
#	135458
#	147948
#	162187
#	176342
#	190904
#	205638
#	220480
#	236257
#	250377
#
# Disc length: 3571 seconds
#
# Revision: 0
# Processed by: cddbd v1.4PL0 Copyright (c) Steve Scherf et al.
# Submitted via: audiograbber 1.81.03
#
DISCID=f30df112
DTITLE=Milton Mallavaarchchi - Paayaa aa sandha
DYEAR=1998
DGENRE=Pop
TTITLE0=Mee maei gaha yata
TTITLE1=Oba venuven
TTITLE2=Sulangee paavii
TTITLE3=Maa neth kandhulaellee
TTITLE4=Gamanee gim nivuu
TTITLE5=Gana andhuree
TTITLE6=Paayaa aa sandha
TTITLE7=Ivuru thalaa
TTITLE8=Sundharathvayen
TTITLE9=Paenikurullanee
TTITLE10=Aavaa aadharen
TTITLE11=Dhineka ran salu
TTITLE12=Ranambara indhudhunu
TTITLE13=Sayuru thereedhii
TTITLE14=Paeradhiilaa palaagiyee naee
TTITLE15=Andannepaa dhaen
TTITLE16=Mata men ohutadha
TTITLE17=Dharanna baee
EXTD=
EXTT0=
EXTT1=
EXTT2=
EXTT3=
EXTT4=
EXTT5=
EXTT6=
EXTT7=
EXTT8=
EXTT9=
EXTT10=
EXTT11=
EXTT12=
EXTT13=
EXTT14=
EXTT15=
EXTT16=
EXTT17=
PLAYORDER=
